<?xml version="1.0" encoding="utf-8"?>
<!-- Generator: Adobe Illustrator 16.0.0, SVG Export Plug-In . SVG Version: 6.00 Build 0)  -->
<!DOCTYPE svg PUBLIC "-//W3C//DTD SVG 1.1//EN" "http://www.w3.org/Graphics/SVG/1.1/DTD/svg11.dtd">
<svg version="1.1" id="Layer_1" xmlns="http://www.w3.org/2000/svg" xmlns:xlink="http://www.w3.org/1999/xlink" x="0px" y="0px"
	 width="320px" height="30.126px" viewBox="0 0 320 30.126" enable-background="new 0 0 320 30.126" xml:space="preserve">
<g>
	<g>
		<path fill="#FFFFFF" d="M0,16.522v-1.39l16.117-8.371v1.875L2.119,15.791l13.998,7.226v1.876L0,16.522z"/>
		<path fill="#FFFFFF" d="M303.884,23.017l13.998-7.156l-13.998-7.224V6.762L320,15.132v1.39l-16.116,8.371V23.017z"/>
	</g>
	<g>
		<path fill="#FFFFFF" d="M42.863,0.5h5.451l8.863,13.773L66.04,0.5h5.452v29.127h-5.119V8.738l-9.196,13.733H57.01l-9.111-13.65
			v20.807h-5.036L42.863,0.5L42.863,0.5z"/>
		<path fill="#FFFFFF" d="M88.094,15.148v-0.084C88.094,6.866,94.419,0,103.364,0c8.948,0,15.189,6.782,15.189,14.979v0.084
			c0,8.197-6.324,15.062-15.271,15.062C94.335,30.125,88.094,23.344,88.094,15.148z M113.187,15.148v-0.084
			c0-5.66-4.12-10.36-9.904-10.36c-5.785,0-9.821,4.618-9.821,10.276v0.084c0,5.66,4.12,10.361,9.903,10.361
			C109.148,25.425,113.187,20.807,113.187,15.148z"/>
		<path fill="#FFFFFF" d="M135.153,0.5h4.745l15.604,20.141V0.499h5.035v29.128h-4.285L140.191,8.906v20.721h-5.036L135.153,0.5
			L135.153,0.5z"/>
		<path fill="#FFFFFF" d="M185.585,5.242h-9.238V0.499h23.636v4.744h-9.239v24.384h-5.159L185.585,5.242L185.585,5.242z"/>
		<path fill="#FFFFFF" d="M222.366,0.29h4.745l12.815,29.336h-5.409l-2.955-7.031H217.79l-2.995,7.031h-5.243L222.366,0.29z
			 M229.689,18.06l-5.032-11.652l-4.995,11.652H229.689z"/>
		<path fill="#FFFFFF" d="M252.241,15.148v-0.084C252.241,6.907,258.483,0,267.264,0c5.075,0,8.196,1.414,11.194,3.953l-3.246,3.87
			c-2.248-1.914-4.453-3.12-8.157-3.12c-5.367,0-9.445,4.701-9.445,10.276v0.084c0,5.992,3.953,10.404,9.903,10.404
			c2.746,0,5.243-0.875,7.032-2.207v-5.45h-7.448v-4.454h12.401v12.235c-2.873,2.455-6.991,4.534-12.152,4.534
			C258.234,30.125,252.241,23.635,252.241,15.148z"/>
	</g>
</g>
</svg>
